<?xml version="1.0" standalone="no"?>
<!DOCTYPE svg PUBLIC "-//W3C//DTD SVG 20010904//EN"
 "http://www.w3.org/TR/2001/REC-SVG-20010904/DTD/svg10.dtd">
<svg version="1.0" xmlns="http://www.w3.org/2000/svg"
 width="768.000000pt" height="768.000000pt" viewBox="0 0 768.000000 768.000000"
 preserveAspectRatio="xMidYMid meet">
<metadata>
Created by potrace 1.14, written by Peter Selinger 2001-2017
</metadata>
<g transform="translate(0.000000,768.000000) scale(0.100000,-0.100000)"
fill="#000000" stroke="none">
<path d="M3677 7411 c-12 -13 -76 -174 -92 -231 -7 -24 -145 -402 -158 -433
-12 -26 -30 -38 -72 -43 -11 -1 -20 -3 -20 -4 0 -1 -9 -3 -20 -5 -11 -1 -65
-10 -120 -19 -55 -8 -119 -17 -142 -20 -60 -6 -66 -1 -323 276 -163 175 -279
287 -304 294 -12 3 -35 0 -51 -6 -17 -6 -31 -11 -32 -11 -3 0 -296 -149 -442
-226 -40 -21 -100 -64 -133 -95 -64 -61 -65 -64 -44 -153 3 -11 16 -72 30
-135 13 -63 34 -155 46 -205 11 -49 23 -101 26 -115 7 -28 8 -35 17 -70 14
-53 19 -87 20 -133 l2 -48 -105 -102 c-113 -110 -135 -129 -165 -142 -26 -11
-77 -12 -91 -2 -6 4 -24 8 -40 10 -16 2 -36 6 -44 9 -13 6 -252 64 -290 72 -8
2 -22 5 -30 9 -32 11 -234 59 -264 61 -17 2 -37 -1 -43 -7 -7 -5 -13 -7 -13
-3 0 4 -16 -8 -35 -26 -30 -27 -145 -194 -145 -210 0 -3 -36 -67 -79 -142 -44
-75 -77 -136 -75 -136 3 0 -3 -12 -14 -27 -31 -46 -53 -114 -47 -143 4 -18 88
-109 250 -271 135 -134 256 -261 270 -281 24 -36 26 -66 10 -148 -2 -13 -7
-40 -10 -60 -7 -47 -13 -78 -19 -98 -3 -9 -8 -31 -10 -47 -3 -17 -12 -48 -19
-70 l-14 -40 -299 -101 c-368 -126 -385 -132 -406 -151 -15 -13 -20 -40 -18
-98 1 -11 1 -26 1 -32 -1 -7 -1 -19 -2 -25 0 -7 0 -39 1 -71 1 -32 0 -61 -3
-64 -3 -3 -2 -16 3 -29 7 -16 6 -24 -1 -24 -8 0 -8 -4 -1 -13 6 -7 8 -18 4
-24 -4 -6 -5 -43 -2 -82 3 -38 2 -80 -1 -93 -3 -13 -2 -30 2 -39 4 -8 4 -21 0
-27 -4 -7 -5 -33 -1 -58 4 -24 4 -47 0 -49 -4 -2 -5 -18 -2 -35 3 -21 19 -43
50 -69 44 -38 80 -50 252 -86 42 -9 102 -22 175 -38 39 -9 82 -18 95 -20 14
-3 36 -8 50 -11 14 -3 36 -8 50 -11 23 -4 55 -12 130 -30 15 -4 31 -18 37 -33
18 -42 36 -86 38 -97 2 -5 13 -35 25 -65 37 -92 52 -152 46 -182 -5 -27 -49
-99 -79 -130 -7 -7 -28 -33 -47 -58 -19 -25 -57 -72 -85 -106 -27 -33 -61 -75
-75 -93 -33 -44 -56 -73 -74 -91 -18 -19 -63 -84 -87 -127 -11 -19 -16 -43
-13 -60 5 -29 63 -123 77 -123 4 0 7 -6 7 -14 0 -8 4 -16 8 -18 4 -2 41 -48
82 -103 41 -55 79 -103 84 -107 6 -4 8 -8 4 -8 -4 0 9 -17 27 -38 19 -20 35
-40 35 -43 0 -3 10 -17 22 -31 13 -14 42 -48 66 -76 62 -71 90 -83 155 -65 29
8 59 17 67 20 8 4 17 7 20 8 14 5 67 26 85 35 16 7 51 19 75 25 3 1 19 7 35
14 17 7 77 30 135 52 58 21 114 43 125 49 33 16 143 50 161 50 16 0 102 -45
114 -59 3 -3 28 -21 55 -40 28 -19 63 -47 79 -62 28 -27 28 -28 22 -116 -3
-48 -8 -106 -11 -128 -2 -22 -7 -62 -10 -90 -9 -84 -15 -139 -20 -170 -10 -74
-19 -176 -19 -240 -1 -69 0 -70 42 -112 24 -24 60 -50 80 -59 20 -9 48 -22 62
-29 14 -7 40 -16 57 -20 18 -3 35 -11 38 -16 4 -5 16 -9 29 -9 12 0 26 -4 31
-8 6 -5 33 -17 60 -26 28 -10 57 -20 65 -23 8 -3 20 -7 25 -9 6 -2 68 -23 140
-48 77 -27 138 -43 149 -40 27 9 176 164 176 184 0 5 4 10 8 12 4 2 33 37 65
78 31 41 63 84 72 95 8 11 55 75 104 142 49 67 100 127 112 133 24 13 268 8
291 -6 14 -9 45 -49 38 -49 -3 0 4 -13 16 -30 11 -16 54 -95 94 -175 40 -80
76 -149 81 -154 5 -6 9 -18 9 -27 0 -10 3 -19 8 -21 4 -2 25 -38 47 -81 69
-136 42 -126 326 -122 143 2 265 8 294 15 28 6 57 13 65 15 147 31 198 51 248
99 54 50 59 64 67 163 3 43 8 101 10 128 2 28 7 95 10 150 15 245 24 354 31
376 5 17 75 65 138 94 82 37 129 28 251 -51 30 -18 57 -34 60 -34 4 0 26 -13
50 -30 24 -16 48 -30 54 -30 6 0 11 -4 11 -10 0 -5 5 -10 11 -10 11 0 186
-103 240 -141 14 -10 29 -16 33 -12 3 3 6 2 6 -4 0 -13 48 -32 75 -30 41 4 52
14 340 292 262 253 309 307 300 343 -12 47 -166 341 -217 415 -11 15 -16 27
-12 27 4 0 0 8 -8 18 -30 34 -120 214 -123 245 -2 30 63 175 92 205 13 14 69
20 253 27 429 16 497 21 535 35 33 13 100 80 110 110 9 24 10 31 19 68 3 9 5
17 6 17 1 0 3 9 5 20 8 40 46 201 52 220 8 28 15 459 7 479 -4 9 -23 26 -43
37 -20 11 -76 42 -126 69 -49 28 -101 56 -115 62 -14 7 -28 17 -32 23 -4 5 -8
6 -8 1 0 -5 -8 -2 -17 6 -10 8 -57 34 -105 59 -49 24 -88 47 -88 51 0 5 -8 8
-18 8 -10 0 -23 5 -29 11 -6 6 -22 17 -35 23 -14 7 -24 22 -25 36 -1 14 -5 75
-8 136 l-6 111 33 32 c36 36 290 218 442 318 52 33 57 38 127 105 52 50 59 61
59 95 0 21 -5 54 -11 73 -5 19 -12 44 -14 54 -5 20 -52 169 -62 196 -4 8 -7
17 -7 20 -2 9 -67 205 -73 220 -9 21 -8 20 -24 74 -11 37 -27 60 -71 101 l-57
53 -95 -3 c-52 -2 -118 -6 -146 -10 -28 -4 -81 -9 -118 -10 -37 -2 -67 -4 -67
-5 0 -3 -84 -8 -232 -15 -127 -6 -143 -5 -143 9 0 9 -3 16 -8 16 -4 0 -12 9
-17 19 -6 10 -30 52 -55 92 -64 105 -63 118 35 354 5 11 9 22 10 25 5 13 26
67 35 85 25 55 56 132 101 249 37 96 48 137 43 159 -3 16 -31 53 -63 85 -67
67 -76 74 -271 229 -8 6 -43 34 -77 62 -34 28 -67 51 -73 51 -5 0 -10 4 -10 9
0 4 -28 28 -62 52 -74 51 -114 56 -168 18 -49 -33 -127 -92 -153 -114 -7 -6
-30 -24 -52 -40 -22 -17 -45 -34 -52 -40 -57 -46 -226 -171 -271 -199 -65 -41
-80 -39 -236 28 -106 45 -167 80 -164 94 2 6 -1 23 -17 102 -3 14 -8 41 -11
60 -3 19 -7 45 -10 58 -2 12 -6 32 -8 45 -3 12 -7 38 -10 57 -3 19 -8 46 -12
60 -3 14 -6 32 -6 40 0 8 -4 31 -8 50 -8 32 -19 93 -24 130 -12 83 -31 126
-81 177 l-52 54 -386 -2 c-344 -1 -387 -3 -400 -18z m328 -1565 c28 -3 61 -8
75 -11 14 -3 43 -8 64 -10 21 -3 43 -8 48 -11 4 -3 21 -7 36 -10 42 -7 251
-73 302 -96 208 -92 393 -202 540 -322 99 -81 138 -119 254 -256 34 -40 146
-207 146 -218 0 -6 3 -12 8 -14 9 -4 63 -92 84 -138 69 -151 94 -215 125 -320
14 -47 26 -92 28 -100 2 -8 8 -33 14 -55 5 -22 15 -69 21 -105 5 -36 12 -76
14 -90 14 -79 20 -309 11 -435 -13 -196 -60 -402 -139 -609 -27 -71 -107 -234
-145 -296 -12 -19 -24 -43 -27 -52 -4 -10 -10 -18 -15 -18 -5 0 -9 -7 -9 -15
0 -8 -4 -15 -9 -15 -5 0 -13 -9 -16 -20 -3 -11 -12 -26 -18 -32 -7 -7 -32 -40
-56 -73 -58 -78 -238 -259 -321 -321 -86 -65 -231 -160 -237 -156 -2 1 -28
-14 -58 -33 -30 -20 -55 -33 -55 -29 0 3 -15 -4 -33 -15 -19 -11 -37 -18 -40
-14 -4 3 -7 1 -7 -5 0 -7 -9 -12 -20 -12 -11 0 -20 -4 -20 -9 0 -5 -10 -11
-22 -14 -13 -3 -61 -19 -108 -36 -78 -29 -206 -64 -275 -76 -16 -2 -39 -7 -50
-9 -136 -27 -582 -28 -705 -2 -8 1 -37 6 -65 11 -27 4 -54 10 -60 13 -5 4 -19
7 -30 8 -28 1 -227 66 -305 99 -91 38 -215 100 -280 141 -30 19 -65 39 -77 44
-13 5 -23 14 -23 20 0 5 -5 10 -11 10 -12 0 -135 96 -203 160 -201 187 -365
419 -479 680 -19 44 -55 133 -55 140 -1 6 -9 33 -19 58 -3 9 -7 22 -9 27 -13
52 -26 104 -30 125 -3 14 -10 43 -15 65 -5 22 -12 58 -15 80 -2 22 -7 46 -9
53 -24 69 -24 498 0 582 3 8 6 31 9 50 7 58 55 251 81 325 24 70 41 112 72
183 9 20 17 39 18 42 6 20 41 86 48 88 4 2 7 9 7 15 0 18 123 210 188 296 65
84 193 217 267 276 28 22 52 43 55 46 18 23 281 182 323 196 9 3 17 9 17 14 0
5 6 9 13 9 7 0 38 12 67 26 71 34 192 81 233 89 18 4 37 10 42 14 6 3 35 12
65 18 30 7 64 15 75 18 80 20 93 22 180 31 39 3 71 7 72 9 5 4 420 -4 468 -9z"/>
<path d="M2591 4324 c-178 -47 -317 -176 -355 -329 -5 -16 -10 -39 -13 -50 -3
-11 -7 -58 -10 -105 -11 -195 72 -360 224 -441 41 -22 60 -30 118 -45 72 -19
241 -24 319 -11 90 17 88 14 100 90 5 30 6 30 -49 17 -95 -23 -250 -32 -295
-18 -8 3 -28 9 -45 13 -39 11 -114 52 -143 79 -26 23 -88 145 -98 191 -12 57
-10 180 3 225 22 74 59 142 103 188 68 70 121 97 230 117 36 7 180 6 190 0 5
-3 24 -8 42 -11 72 -12 73 -12 76 27 5 62 -8 67 -213 73 -91 3 -146 -1 -184
-10z"/>
<path d="M3225 4319 c-13 -4 -26 -5 -28 -3 -2 3 -5 -31 -6 -73 -1 -43 -4 -141
-6 -218 -4 -124 -10 -271 -20 -472 -2 -35 -6 -94 -10 -133 l-7 -70 66 0 c62 0
66 2 67 23 0 12 2 36 4 52 3 17 7 157 9 310 8 406 12 486 25 494 7 4 72 7 146
5 125 -3 136 -4 173 -29 104 -68 85 -232 -35 -301 -38 -23 -61 -28 -137 -32
-50 -2 -92 -5 -93 -6 -2 -1 46 -84 106 -184 60 -100 107 -182 104 -182 -4 0 0
-8 8 -17 8 -10 20 -28 27 -40 52 -94 50 -93 126 -93 36 0 66 2 66 4 0 3 -26
42 -57 88 -31 46 -85 128 -118 183 -34 55 -71 116 -83 135 -12 19 -22 38 -22
42 0 4 26 12 58 19 107 23 173 70 216 154 22 43 25 61 22 131 -2 70 -6 85 -30
116 -40 53 -97 87 -158 94 -73 9 -383 10 -413 3z"/>
<path d="M4707 4303 c-289 -567 -475 -942 -470 -947 3 -3 33 -6 65 -6 l58 0
37 78 c21 42 42 80 46 83 5 3 8 9 7 13 -1 4 24 58 54 122 l56 115 192 -3 192
-3 24 -60 c14 -33 28 -69 32 -80 5 -11 20 -56 34 -100 15 -44 33 -98 41 -121
l15 -41 65 0 c62 0 65 1 59 21 -6 21 -43 122 -60 161 -4 11 -8 25 -9 30 0 6
-3 15 -6 20 -4 6 -12 28 -18 50 -12 40 -18 57 -39 105 -6 14 -16 46 -23 73 -8
26 -18 47 -23 47 -5 0 -7 3 -3 6 3 4 -1 23 -9 43 -9 20 -24 61 -34 91 -41 126
-103 296 -111 306 -6 7 -38 12 -73 12 -36 0 -69 3 -75 6 -5 4 -17 -6 -24 -21z
m97 -121 c22 -42 116 -325 111 -331 -3 -3 -30 -6 -61 -7 -30 -1 -58 -4 -60 -7
-3 -3 -21 -1 -40 3 -18 4 -34 4 -34 -1 0 -4 -7 -6 -16 -2 -9 3 -30 7 -48 8
-45 4 -46 4 -46 16 0 23 161 349 172 349 4 0 14 -13 22 -28z"/>
<path d="M3901 3760 c-9 -5 -14 -32 -12 -61 1 -13 17 -16 99 -16 53 -1 102 -2
107 -3 6 -1 38 -2 73 -1 l62 1 0 40 c0 31 -4 40 -17 41 -71 4 -305 4 -312 -1z"/>
</g>
</svg>
