<?xml version="1.0" standalone="no"?>
<!DOCTYPE svg PUBLIC "-//W3C//DTD SVG 20010904//EN"
 "http://www.w3.org/TR/2001/REC-SVG-20010904/DTD/svg10.dtd">
<svg version="1.0" xmlns="http://www.w3.org/2000/svg"
 width="768px" height="748px" viewBox="0 0 768 748"
 preserveAspectRatio="xMidYMid meet">

<g transform="translate(0,748) scale(0.100000,-0.100000)"
fill="#000000" stroke="none">
<path d="M3671 7313 c-5 -10 -25 -63 -44 -118 -20 -55 -61 -170 -93 -255 -31
-85 -69 -189 -83 -230 -35 -97 -34 -96 -73 -103 -244 -44 -338 -57 -365 -52
-26 5 -68 44 -215 203 -307 332 -349 372 -388 372 -22 0 -95 -32 -229 -102
-108 -56 -235 -121 -282 -145 -94 -47 -189 -134 -189 -173 0 -12 14 -78 31
-148 16 -70 37 -163 45 -207 9 -44 31 -142 50 -217 35 -142 40 -183 24 -208
-5 -8 -58 -63 -117 -123 -72 -71 -122 -112 -149 -123 -40 -15 -45 -15 -220 30
-98 25 -217 54 -264 66 -47 11 -129 32 -182 47 -112 29 -133 27 -188 -23 -42
-38 -71 -82 -146 -218 -27 -49 -56 -101 -64 -115 -117 -202 -150 -268 -150
-306 0 -34 16 -52 270 -302 230 -226 270 -270 276 -301 7 -37 -39 -299 -68
-388 l-13 -39 -335 -111 c-195 -65 -346 -120 -362 -133 l-28 -23 0 -388 0
-388 39 -35 c22 -19 48 -40 58 -45 10 -6 171 -42 358 -81 187 -40 348 -74 357
-77 10 -3 28 -35 44 -77 15 -40 42 -111 60 -159 49 -128 47 -151 -25 -240 -32
-40 -136 -170 -231 -288 -219 -273 -214 -253 -98 -404 45 -60 97 -127 113
-150 89 -124 220 -288 255 -320 60 -54 78 -53 265 20 144 56 192 75 305 117
36 13 101 39 146 56 86 33 108 36 147 22 20 -8 184 -125 225 -161 21 -18 18
-56 -38 -547 -29 -247 -29 -242 28 -301 52 -55 33 -47 455 -201 137 -50 258
-91 269 -91 43 0 174 154 406 475 40 55 85 117 100 137 15 20 37 41 50 45 21
8 242 -1 287 -12 15 -3 61 -87 179 -322 88 -175 166 -324 175 -331 12 -9 74
-11 261 -9 243 3 246 4 400 41 108 26 162 43 179 59 29 26 73 74 84 93 7 12
28 280 46 592 6 100 14 169 22 178 6 8 49 35 94 59 109 60 145 60 237 2 37
-23 147 -89 245 -146 98 -57 209 -124 247 -148 116 -72 98 -82 389 201 301
290 344 336 353 370 8 32 -23 97 -154 328 -16 29 -40 71 -52 93 -13 22 -54 96
-93 164 -59 107 -68 129 -64 160 6 42 84 189 107 201 8 4 157 13 330 19 465
17 443 14 506 75 48 47 53 57 69 131 10 44 31 133 46 197 27 110 29 129 29
332 0 212 0 215 -22 231 -13 9 -124 71 -248 137 -124 67 -259 140 -300 162
l-75 42 -9 127 c-4 70 -5 138 -2 150 5 21 120 105 483 353 41 28 97 73 124
100 74 73 72 84 -56 466 l-104 313 -55 53 c-65 62 -44 60 -366 31 -124 -11
-282 -23 -352 -26 l-126 -6 -71 108 c-57 85 -71 115 -71 145 0 35 25 103 130
355 113 269 150 368 150 397 0 40 -67 107 -245 249 -66 52 -178 141 -248 197
-148 118 -163 122 -239 70 -46 -32 -95 -70 -391 -297 -82 -62 -164 -117 -183
-122 -30 -9 -51 -3 -185 53 -105 43 -154 69 -160 83 -4 11 -20 88 -34 170 -15
83 -38 211 -51 285 -14 74 -30 161 -35 194 -13 76 -27 103 -83 154 l-46 42
-389 0 c-362 0 -391 -1 -400 -17z m469 -1588 c368 -76 675 -225 970 -471 91
-75 199 -197 291 -329 55 -79 169 -269 169 -283 0 -4 7 -20 16 -37 78 -149
153 -411 179 -620 51 -415 -17 -827 -195 -1190 -208 -425 -498 -714 -920 -919
-302 -146 -569 -206 -915 -206 -273 0 -475 34 -712 119 -517 184 -906 537
-1143 1036 -130 274 -212 677 -196 965 21 381 125 722 314 1029 198 323 422
529 767 707 167 86 294 134 453 173 221 55 275 60 572 55 195 -3 242 -7 350
-29z"/>
<path d="M2578 4221 c-195 -54 -313 -178 -354 -369 -53 -253 36 -472 230 -563
123 -58 286 -72 454 -40 54 11 58 15 65 70 5 40 4 43 -16 38 -98 -23 -188 -37
-237 -37 -98 0 -232 52 -287 112 -37 41 -82 142 -95 215 -29 170 48 357 182
443 96 61 256 80 386 46 87 -22 86 -23 82 31 -3 42 -6 48 -33 56 -16 4 -93 10
-170 13 -116 3 -152 1 -207 -15z"/>
<path d="M3329 4223 l-136 -4 -7 -252 c-7 -265 -21 -563 -32 -659 l-6 -58 65
0 66 0 5 53 c3 28 8 212 11 407 3 195 9 371 13 390 l8 35 134 0 c117 0 140 -3
174 -21 54 -28 78 -63 84 -123 8 -88 -55 -178 -147 -209 -19 -7 -69 -12 -112
-12 -44 0 -79 -2 -79 -4 0 -3 30 -53 67 -113 55 -90 152 -257 217 -375 14 -26
19 -28 86 -28 38 0 70 2 70 5 0 3 -29 47 -64 98 -35 50 -73 108 -84 127 -11
19 -45 75 -76 124 -31 49 -56 93 -56 97 0 5 10 11 23 13 110 23 132 31 178 68
68 54 99 119 99 211 0 37 -6 82 -14 100 -17 42 -85 101 -133 115 -48 14 -181
20 -354 15z"/>
<path d="M4550 3893 c-91 -180 -200 -395 -242 -477 -43 -83 -78 -154 -78 -158
0 -4 29 -8 65 -8 l66 0 99 205 99 205 189 0 c149 0 192 -3 201 -14 6 -7 40
-98 75 -202 l64 -189 66 -3 c36 -2 66 1 66 5 0 5 -14 44 -31 88 -17 44 -48
130 -69 190 -21 61 -59 169 -85 240 -26 72 -68 193 -95 270 -27 77 -51 148
-55 158 -6 14 -20 17 -89 17 l-81 0 -165 -327z m272 146 c60 -162 98 -281 93
-290 -8 -11 -302 -12 -309 0 -8 12 167 371 179 368 5 -2 22 -37 37 -78z"/>
<path d="M3887 3630 c-2 -19 -2 -38 0 -42 2 -5 80 -8 174 -8 l169 0 2 30 c0
17 1 35 2 42 1 9 -42 12 -171 13 l-171 0 -5 -35z"/>
</g>
</svg>
